<?xml version="1.0" encoding="iso-8859-1"?>
<!-- Generator: Adobe Illustrator 19.0.0, SVG Export Plug-In . SVG Version: 6.00 Build 0)  -->
<svg version="1.1" id="Capa_1" xmlns="http://www.w3.org/2000/svg" xmlns:xlink="http://www.w3.org/1999/xlink" x="0px" y="0px"
	 viewBox="0 0 512 512" style="enable-background:new 0 0 512 512;" xml:space="preserve">
<path style="fill:#E1E4FB;" d="M481.7,192.299l-9.3-48.9c-0.601-2.1-1.5-4.199-2.699-6L418.1,67.2c-2.1-2.999-5.4-5.099-9-6L277,33
	c-1.8-0.3-3.6-0.3-5.099,0L256,35.1L115.201,53.7c-3.301,0.3-6.601,2.1-9.001,4.5L48,121.199c-1.8,1.8-2.999,4.2-3.6,6.899
	L30.301,191.7c-0.3,1.199-0.3,2.098-0.3,3.3v302c0,8.399,6.599,15,15,15h422c8.401,0,15-6.601,15-15L481.7,192.299z"/>
<path style="fill:#CDD2E1;" d="M482.001,497c0,8.399-6.599,15-15,15h-211V35.099l15.901-2.1c1.5-0.3,3.3-0.3,5.099,0l132.1,28.2
	c3.6,0.901,6.899,3.001,9,6l51.601,70.199c1.199,1.802,2.098,3.9,2.699,6l9.3,48.9L482.001,497z"/>
<rect x="135" y="256" style="fill:#3C3A41;" width="242" height="256"/>
<rect x="256" y="256" style="fill:#2B292C;" width="121" height="256"/>
<path style="fill:#1BD9DE;" d="M256.001,120c-24.901,0-45,20.099-45,45c0,24.899,20.099,45,45,45s45-20.101,45-45
	C301.001,140.099,280.901,120,256.001,120z"/>
<path style="fill:#15B7BE;" d="M301.001,165c0,24.899-20.099,45-45,45v-90C280.901,120,301.001,140.099,301.001,165z"/>
<path style="fill:#FF5842;" d="M498.801,189.899c-14.932,9.667-33.129,4.933-41.7-8.399l-68.099-94.501l-133.001-26.4L123,86.999
	L54.901,181.5c-8.264,12.854-26.349,18.111-41.4,8.699C0.127,181.481-4.44,162.494,5.1,148.5l75-105
	c4.2-6.601,11.4-11.4,19.2-12.902l151-30C252.1,0.3,253.9,0,256.001,0c2.1,0,3.9,0.3,6,0.599l150.7,30
	c7.8,1.501,15,6.301,19.2,12.902l75,105C516.619,162.755,511.498,181.822,498.801,189.899z"/>
<path style="fill:#707789;" d="M422.001,256c0,8.399-6.599,15-15,15h-302c-8.401,0-15-6.601-15-15c0-8.401,6.599-15,15-15h302
	C415.401,241,422.001,247.599,422.001,256z"/>
<path style="fill:#555A66;" d="M422.001,256c0,8.399-6.599,15-15,15h-151v-30h151C415.401,241,422.001,247.599,422.001,256z"/>
<path style="fill:#FCBF29;" d="M256.001,437c0-8.401-6.599-15-15-15l-19.059-12.971h-73.969L135.001,422v90h121l13.059-15.883
	v-46.058L256.001,437z"/>
<path style="fill:#FEA832;" d="M256.001,347v60c0,8.399-6.599,15-15,15h-106v-90h106C249.401,332,256.001,338.599,256.001,347z"/>
<path style="fill:#FCBF29;" d="M211.001,332v30c0,8.399-6.599,15-15,15s-15-6.601-15-15v-30H211.001z"/>
<path style="fill:#FEDB41;" d="M211.001,422v30c0,8.399-6.599,15-15,15s-15-6.601-15-15v-30H211.001z"/>
<path style="fill:#707789;" d="M392.001,256v256h-30V271h-212v241h-30V256c0-8.401,6.599-15,15-15h242
	C385.401,241,392.001,247.599,392.001,256z"/>
<path style="fill:#FF873C;" d="M377.001,422v90h-121v-75c0-8.401,6.599-15,15-15H377.001z"/>
<path style="fill:#FEA832;" d="M331.001,422v30c0,8.399-6.599,15-15,15s-15-6.601-15-15v-30H331.001z"/>
<path style="fill:#555A66;" d="M392.001,256v256h-30V271h-106v-30h121C385.401,241,392.001,247.599,392.001,256z"/>
<path style="fill:#FD3018;" d="M498.801,189.899c-14.932,9.667-33.129,4.933-41.7-8.399l-68.099-94.501l-133.001-26.4V0
	c2.1,0,3.9,0.3,6,0.599l150.7,30c7.8,1.501,15,6.301,19.2,12.902l75,105C516.619,162.755,511.498,181.822,498.801,189.899z"/>
<g>
</g>
<g>
</g>
<g>
</g>
<g>
</g>
<g>
</g>
<g>
</g>
<g>
</g>
<g>
</g>
<g>
</g>
<g>
</g>
<g>
</g>
<g>
</g>
<g>
</g>
<g>
</g>
<g>
</g>
</svg>
