<?xml version="1.0" encoding="iso-8859-1"?>
<!-- Generator: Adobe Illustrator 19.0.0, SVG Export Plug-In . SVG Version: 6.00 Build 0)  -->
<svg version="1.1" id="Capa_1" xmlns="http://www.w3.org/2000/svg" xmlns:xlink="http://www.w3.org/1999/xlink" x="0px" y="0px"
	 viewBox="0 0 512.291 512.291" style="enable-background:new 0 0 512.291 512.291;" xml:space="preserve">
<g>
	<g>
		<path d="M402.133,181.673L208.194,2.473c-3.103-3.103-7.758-3.103-10.861,0L2.618,181.673c-2.327,2.327-3.103,5.43-2.327,8.533
			s3.879,4.655,6.982,4.655h18.618v309.527c0,4.655,3.103,7.758,7.758,7.758h337.455c4.655,0,7.758-3.103,7.758-7.758v-30.255
			c0.776-4.654-2.327-7.758-6.982-7.758s-7.758,3.103-7.758,7.758v22.497H42.182V195.636h321.939V235.2
			c0,4.655,3.103,7.758,7.758,7.758s7.758-3.103,7.758-7.758v-39.564h18.618c4.655,0,7.758-3.103,7.758-7.758
			C406.012,184.776,404.461,182.448,402.133,181.673z M28.218,180.121L203.539,18.764l175.321,161.358
			C164.752,180.121,221.382,180.121,28.218,180.121z"/>
	</g>
</g>
<g>
	<g>
		<path d="M203.539,58.327c-30.255,0-55.079,24.824-55.079,55.079c0,30.255,24.824,55.079,55.079,55.079
			c30.255,0,55.079-24.824,55.079-55.079C258.618,83.151,233.794,58.327,203.539,58.327z M203.539,153.745
			c-21.721,0-39.564-17.842-39.564-39.564c0-22.497,17.842-39.564,39.564-39.564c21.721,0,39.564,17.842,39.564,39.564
			S225.261,153.745,203.539,153.745z"/>
	</g>
</g>
<g>
	<g>
		<path d="M508.412,354.667l-26.376-43.442c-4.655-6.982-12.412-11.636-20.945-11.636H419.2c-4.655,0-7.758,3.103-7.758,7.758
			v92.315H262.497c-2.327,0-3.879,0.776-5.43,2.327c-1.552,1.552-2.327,3.103-2.327,5.43v41.891c0,4.655,3.103,7.758,7.758,7.758
			h29.479c0.776,18.618,15.515,32.582,34.133,32.582c18.618,0,33.358-14.739,34.133-32.582H419.2
			c0.776,18.618,15.515,32.582,34.133,32.582c18.618,0,33.358-14.739,34.133-32.582h17.067c4.655,0,7.758-3.103,7.758-7.758
			c0-76.8,0-5.43,0-82.23C512.291,362.424,510.739,358.545,508.412,354.667z M426.958,315.103h34.909
			c2.327,0,5.43,1.552,6.982,3.879l24.048,40.339h-65.939V315.103z M325.333,474.133c-10.085,0-18.618-8.533-18.618-18.618
			s8.533-18.618,18.618-18.618c10.085,0,18.618,8.533,18.618,18.618C343.952,465.6,335.418,474.133,325.333,474.133z
			 M451.782,474.133c-10.085,0-18.618-8.533-18.618-18.618s8.533-18.618,18.618-18.618s18.618,8.533,18.618,18.618
			C469.624,465.6,461.867,474.133,451.782,474.133z M496.776,440.776h-14.739c-5.43-11.636-17.067-19.394-30.255-19.394
			s-24.824,7.758-30.255,19.394h-65.164c-5.43-11.636-17.067-19.394-30.255-19.394c-13.188,0-24.824,7.758-30.255,19.394H271.03
			V414.4h225.746V440.776z M496.776,398.885h-69.818v-24.048h69.818V398.885z"/>
	</g>
</g>
<g>
	<g>
		<path d="M132.945,308.121H66.23c-4.655,0-7.758,3.103-7.758,7.758v67.491c0,4.655,3.103,7.758,7.758,7.758h66.715
			c4.655,0,7.758-3.103,7.758-7.758v-67.491C140.703,311.224,137.6,308.121,132.945,308.121z M125.188,376.388h-51.2v-51.976h51.2
			V376.388z"/>
	</g>
</g>
<g>
	<g>
		<path d="M226.812,308.121h-66.715c-4.655,0-7.758,3.103-7.758,7.758v67.491c0,4.655,3.103,7.758,7.758,7.758h66.715
			c4.655,0,7.758-3.103,7.758-7.758v-67.491C234.57,311.224,231.467,308.121,226.812,308.121z M219.055,376.388h-51.2v-51.976h51.2
			V376.388z"/>
	</g>
</g>
<g>
	<g>
		<path d="M132.945,401.988H66.23c-4.655,0-7.758,3.103-7.758,7.758v67.491c0,4.655,3.103,7.758,7.758,7.758h66.715
			c4.655,0,7.758-3.103,7.758-7.758v-67.491C140.703,405.091,137.6,401.988,132.945,401.988z M125.188,469.479h-51.2v-51.976h51.2
			V469.479z"/>
	</g>
</g>
<g>
	<g>
		<path d="M226.812,401.988h-66.715c-4.655,0-7.758,3.103-7.758,7.758v67.491c0,4.655,3.103,7.758,7.758,7.758h66.715
			c4.655,0,7.758-3.103,7.758-7.758v-67.491C234.57,405.091,231.467,401.988,226.812,401.988z M219.055,469.479h-51.2v-51.976h51.2
			V469.479z"/>
	</g>
</g>
<g>
	<g>
		<path d="M132.945,211.927H66.23c-4.655,0-7.758,3.103-7.758,7.758v67.491c0,4.655,3.103,7.758,7.758,7.758h66.715
			c4.655,0,7.758-3.103,7.758-7.758v-67.491C140.703,215.03,137.6,211.927,132.945,211.927z M125.188,280.194h-51.2v-51.976h51.2
			V280.194z"/>
	</g>
</g>
<g>
	<g>
		<path d="M226.812,211.927h-66.715c-4.655,0-7.758,3.103-7.758,7.758v67.491c0,4.655,3.103,7.758,7.758,7.758h66.715
			c4.655,0,7.758-3.103,7.758-7.758v-67.491C234.57,215.03,231.467,211.927,226.812,211.927z M219.055,280.194h-51.2v-51.976h51.2
			V280.194z"/>
	</g>
</g>
<g>
	<g>
		<path d="M395.152,256.145H264.048c-4.655,0-7.758,3.103-7.758,7.758V383.37c0,4.655,3.103,7.758,7.758,7.758h131.103
			c4.654,0,7.758-3.103,7.758-7.758V263.903C402.909,259.248,399.806,256.145,395.152,256.145z M387.394,375.612H271.806V271.661
			h115.588V375.612z"/>
	</g>
</g>
<g>
</g>
<g>
</g>
<g>
</g>
<g>
</g>
<g>
</g>
<g>
</g>
<g>
</g>
<g>
</g>
<g>
</g>
<g>
</g>
<g>
</g>
<g>
</g>
<g>
</g>
<g>
</g>
<g>
</g>
</svg>
